<?xml version="1.0" encoding="UTF-8" standalone="no"?>
<!-- Created with Inkscape (http://www.inkscape.org/) -->
<svg id="svg2" xmlns:rdf="http://www.w3.org/1999/02/22-rdf-syntax-ns#" xmlns="http://www.w3.org/2000/svg" height="1052.4" width="744.09" version="1.1" xmlns:cc="http://creativecommons.org/ns#" xmlns:dc="http://purl.org/dc/elements/1.1/">
 <defs id="defs4">
  <marker id="Arrow2Lend" refY="0.0" refX="0.0" orient="auto">
   <path id="path4183" stroke-linejoin="round" d="M8.7186,4.0337l-10.926-4.0177,10.926-4.0177c-1.7455,2.3721-1.7355,5.6174,0,8.0354z" fill-rule="evenodd" transform="scale(1.1) rotate(180) translate(1,0)" stroke-width="0.62500000"/>
  </marker>
  <marker id="TriangleInLc" refY="0.0" refX="0.0" orient="auto">
   <path id="path6101" d="M5.77,0l-8.65,5v-10l8.65,5z" fill-rule="evenodd" transform="scale(-0.8)" stroke="#7a7a7a" stroke-width="1.0pt" fill="#7a7a7a"/>
  </marker>
  <marker id="TriangleOutLg" refY="0.0" refX="0.0" orient="auto">
   <path id="path6104" d="M5.77,0l-8.65,5v-10l8.65,5z" fill-rule="evenodd" transform="scale(0.8)" stroke="#7a7a7a" stroke-width="1.0pt" fill="#7a7a7a"/>
  </marker>
 </defs>
 <metadata id="metadata7">
  <rdf:RDF>
   <cc:Work rdf:about="">
    <dc:format>image/svg+xml</dc:format>
    <dc:type rdf:resource="http://purl.org/dc/dcmitype/StillImage"/>
    <dc:title/>
   </cc:Work>
  </rdf:RDF>
 </metadata>
 <g id="layer1">
  <rect id="rect2985" style="enable-background:accumulate;color:#000000;" fill-rule="nonzero" fill-opacity="0.59817" ry="6.3649" height="24.664" width="172.65" y="224.13" x="179.01" fill="#bebebe"/>
  <rect id="rect2985-4" style="enable-background:accumulate;color:#000000;" fill-rule="nonzero" fill-opacity="0.59817" ry="6.3649" height="24.664" width="172.65" y="140.13" x="179.01" fill="#555"/>
  <path id="path3796" style="marker-end:url(#Arrow2Lend);" d="m262.55,167.64,0,54.102,0,0" stroke-miterlimit="4" stroke-width="0" fill="none"/>
  <path id="path4604" stroke-linejoin="miter" style="marker-end:url(#TriangleOutLg);marker-start:url(#TriangleInLc);" d="m264.94,175.02,0,38.207" stroke="#7a7a7a" stroke-linecap="butt" stroke-miterlimit="4" stroke-dasharray="none" stroke-width="1.65996146" fill="none"/>
  <path id="path6090" stroke-linejoin="miter" d="m264.72,176.8,0,36.598" stroke="#7a7a7a" stroke-linecap="butt" stroke-dasharray="none" stroke-miterlimit="4" stroke-width="4.30000019000000044" fill="none"/>
  <rect id="rect6132" style="enable-background:accumulate;color:#000000;" stroke-dasharray="none" transform="matrix(-0.97731383,-0.21179632,-0.21179632,0.97731383,0,0)" stroke-dashoffset="0" ry="6.3649" height="34.044" width="87.895" stroke="#c7c7c7" stroke-miterlimit="4" y="-116.73" x="-819.62" stroke-width="6.6" fill="none"/>
  <rect id="rect6134" style="enable-background:accumulate;color:#000000;" stroke-dasharray="none" transform="matrix(-0.40162717,0.91580326,0.91580326,0.40162717,0,0)" stroke-dashoffset="0" ry="6.3649" height="14.546" width="80.158" stroke="#c7c7c7" stroke-miterlimit="4" y="691.56" x="-242.37" stroke-width="6.6" fill="none"/>
  <rect id="rect6132-5" style="enable-background:accumulate;color:#000000;" stroke-dasharray="none" transform="matrix(-0.68884925,0.72490463,0.72490463,0.68884925,0,0)" stroke-dashoffset="0" ry="6.3649" height="34.044" width="87.895" stroke="#c7c7c7" stroke-miterlimit="4" y="581.53" x="-399.87" stroke-width="6.6" fill="none"/>
  <rect id="rect6134-5" style="enable-background:accumulate;color:#000000;" stroke-dasharray="none" transform="matrix(-0.99991356,-0.01314839,-0.01314839,0.99991356,0,0)" stroke-dashoffset="0" ry="6.3649" height="14.546" width="80.158" stroke="#c7c7c7" stroke-miterlimit="4" y="166.64" x="-652.58" stroke-width="6.6" fill="none"/>
  <path id="path6191" d="m701.76,172.23-2.6316-13.352-7.8166,1.5085-18.246-22.445,1.5603-2.9855-2.5833,1.3751-0.58568-10.131-28.083,28.209,10.835,1.3601,1.4418,5.2,24.923,14.747-1.2249,3.3042,3.8916-1.4084,8.4357,9.931z" fill="#000"/>
 </g>
</svg>
